<svg height="48" viewBox="0 0 40 48" width="40" xmlns="http://www.w3.org/2000/svg"><g fill="none" fill-rule="evenodd" transform="translate(0 1)"><path d="m19.3921569 0s-6.1602935 4.74764102-15.88633394 4.74764102c-1.12236001 0-2.29222733-.06336524-3.50582296-.20435291v21.58061849s.11606898 7.1549923 7.19951571 12.0388686c7.08344669 4.8838763 12.19264119 7.8372248 12.19264119 7.8372248s5.1091944-2.9533485 12.1926411-7.8372248 7.1995157-12.0388686 7.1995157-12.0388686v-21.58061849c-1.2125159.14098767-2.3834629.20435291-3.5052831.20435291-9.72766 0-15.8868737-4.74764102-15.8868737-4.74764102m0 1.61475767c2.0595495 1.32644581 7.7733823 4.45299263 15.8868737 4.45299263.7136893 0 1.4349365-.02534609 2.1556439-.07392612v20.10896072c-.0010798.0649493-.179772 6.535597-6.6272687 10.9817251-5.4730572 3.7728723-9.7983811 6.4088665-11.4152489 7.3736024-1.6157882-.9642079-5.9373331-3.5970338-11.41524897-7.3736024-6.39944955-4.4128614-6.62133025-10.7203435-6.62726866-10.9606034v-20.13008242c.72124722.04858003 1.44195459.07392612 2.15618369.07392612 8.11295154 0 13.82732424-3.12707486 15.88633394-4.45299263" fill="#4f5576"/><path d="m19.1666667 4.79166667s-4.8709176 3.72347559-12.56143083 3.72347559c-.88750648 0-1.8128564-.04929091-2.77190254-.15994398v16.92539202s.09175739 5.6126252 5.69258684 9.443233c5.60082943 3.8306079 9.64074653 6.1462747 9.64074653 6.1462747s4.039917-2.3156668 9.6407465-6.1462747c5.6008294-3.8306078 5.6925868-9.443233 5.6925868-9.443233v-16.92539202c-.9585277.11065307-1.8849145.15994398-2.7719025.15994398-7.6910317 0-12.5614308-3.72347559-12.5614308-3.72347559m0 1.53053305c1.7511664 1.09546533 6.2509072 3.45036371 12.5614308 3.45036371.4893727 0 .9823742-.01458608 1.4758942-.04375825l.0005184 15.53166642c-.0010368.0502968-.1394505 5.0125837-5.1435977 8.4352842-4.1944013 2.8689321-7.5344738 4.8979069-8.8942457 5.7051713-1.3582167-.8067614-4.6951789-2.8332214-8.8937274-5.7051713-4.89891131-3.350273-5.13374801-8.120426-5.14359767-8.4312605v-15.53569012c.49351996.02917217.98703991.04375825 1.47589424.04375825 6.31000523 0 10.80974603-2.35489838 12.56143083-3.45036371" fill="#4f5576"/><path d="m19.6455661 15.7100757c-1.641203 0-2.9761834 1.3345417-2.9761834 2.9745488 0 1.2213272.7348271 2.3054087 1.8726067 2.7604025l.4200539.1682196v4.7592779c0 .3764914.3062225.6830248.6835228.6830248.3773004 0 .6840573-.3065334.6840573-.6830248v-4.7592779l.4195195-.1682196c1.1377796-.4549938 1.8731411-1.5390753 1.8731411-2.7604025 0-1.6400071-1.3355149-2.9745488-2.9767179-2.9745488m0 12.6805493c-1.1137307 0-2.0195721-.9051813-2.0195721-2.0181005v-3.8824002c-1.4065928-.7417681-2.2926607-2.1900582-2.2926607-3.8054998 0-2.3764348 1.9345995-4.3096245 4.3122328-4.3096245 2.3781678 0 4.3127672 1.9331897 4.3127672 4.3096245 0 1.6154416-.8860679 3.0637317-2.2926606 3.8054998v3.8824002c0 1.1129192-.9063759 2.0181005-2.0201066 2.0181005" fill="#dfc87c"/></g></svg>